<svg width="96" height="96" xmlns="http://www.w3.org/2000/svg" xmlns:xlink="http://www.w3.org/1999/xlink" overflow="hidden"><defs><clipPath id="clip0"><rect x="30" y="70" width="96" height="96"/></clipPath></defs><g clip-path="url(#clip0)" transform="translate(-30 -70)"><path d="M78 91.8 92.4 106.3 95.2 103.5 78 87 60.4 103.8 63.2 106.6Z" fill="#A5A5A5"/><path d="M110 127.9 102 127.9 102 119.9 110 119.9 110 127.9ZM110 139.9 102 139.9 102 131.9 110 131.9 110 139.9ZM98 127.9 90 127.9 90 119.9 98 119.9 98 127.9ZM98 139.9 90 139.9 90 131.9 98 131.9 98 139.9ZM85 127.9 71 127.9 71 123.9 85 123.9 85 127.9ZM78 108.9C79.7 108.9 81 110.2 81 111.9 81 113.6 79.7 114.9 78 114.9 76.3 114.9 75 113.6 75 111.9 75 110.2 76.3 108.9 78 108.9ZM66 127.9 58 127.9 58 119.9 66 119.9 66 127.9ZM66 139.9 58 139.9 58 131.9 66 131.9 66 139.9ZM54 127.9 46 127.9 46 119.9 54 119.9 54 127.9ZM54 139.9 46 139.9 46 131.9 54 131.9 54 139.9ZM90 114.9 90 108.9 78 96.9 66 108.9 66 114.9 42 114.9 42 148.9 71 148.9 71 137.9C71 135.1 73 131.9 78 131.9 83 131.9 85 135.1 85 137.9L85 148.9 114 148.9 114 114.9 90 114.9Z" fill="#A5A5A5"/></g></svg>