<svg width="248" height="213" xmlns="http://www.w3.org/2000/svg" xmlns:xlink="http://www.w3.org/1999/xlink" overflow="hidden"><defs><clipPath id="clip0"><rect x="145" y="298" width="248" height="213"/></clipPath></defs><g clip-path="url(#clip0)" transform="translate(-145 -298)"><path d="M269.184 314.653 318.426 364.96 328 355.245 269.184 298 209 356.286 218.575 366Z" fill="#ED7D31" fill-rule="evenodd"/><path d="M379.222 439.116 351.667 439.116 351.667 411.731 379.222 411.731 379.222 439.116ZM379.222 480.192 351.667 480.192 351.667 452.808 379.222 452.808 379.222 480.192ZM337.889 439.116 310.333 439.116 310.333 411.731 337.889 411.731 337.889 439.116ZM337.889 480.192 310.333 480.192 310.333 452.808 337.889 452.808 337.889 480.192ZM293.111 439.116 244.889 439.116 244.889 425.423 293.111 425.423 293.111 439.116ZM269 374.077C274.856 374.077 279.333 378.527 279.333 384.346 279.333 390.165 274.856 394.616 269 394.616 263.145 394.616 258.667 390.165 258.667 384.346 258.667 378.527 263.145 374.077 269 374.077ZM227.667 439.116 200.111 439.116 200.111 411.731 227.667 411.731 227.667 439.116ZM227.667 480.192 200.111 480.192 200.111 452.808 227.667 452.808 227.667 480.192ZM186.333 439.116 158.778 439.116 158.778 411.731 186.333 411.731 186.333 439.116ZM186.333 480.192 158.778 480.192 158.778 452.808 186.333 452.808 186.333 480.192ZM310.333 394.616 310.333 374.077 269 333 227.667 374.077 227.667 394.616 145 394.616 145 511 244.889 511 244.889 473.346C244.889 463.762 251.778 452.808 269 452.808 286.222 452.808 293.111 463.762 293.111 473.346L293.111 511 393 511 393 394.616 310.333 394.616Z" fill="#ED7D31" fill-rule="evenodd"/></g></svg>