<svg width="96" height="96" xmlns="http://www.w3.org/2000/svg" xmlns:xlink="http://www.w3.org/1999/xlink" overflow="hidden"><defs><clipPath id="clip0"><rect x="16" y="23" width="96" height="96"/></clipPath></defs><g clip-path="url(#clip0)" transform="translate(-16 -23)"><path d="M64 44.8 78.4 59.3 81.2 56.5 64 40 46.4 56.8 49.2 59.6Z" fill="#ED7D31"/><path d="M96 80.9 88 80.9 88 72.9 96 72.9 96 80.9ZM96 92.9 88 92.9 88 84.9 96 84.9 96 92.9ZM84 80.9 76 80.9 76 72.9 84 72.9 84 80.9ZM84 92.9 76 92.9 76 84.9 84 84.9 84 92.9ZM71 80.9 57 80.9 57 76.9 71 76.9 71 80.9ZM64 61.9C65.7 61.9 67 63.2 67 64.9 67 66.6 65.7 67.9 64 67.9 62.3 67.9 61 66.6 61 64.9 61 63.2 62.3 61.9 64 61.9ZM52 80.9 44 80.9 44 72.9 52 72.9 52 80.9ZM52 92.9 44 92.9 44 84.9 52 84.9 52 92.9ZM40 80.9 32 80.9 32 72.9 40 72.9 40 80.9ZM40 92.9 32 92.9 32 84.9 40 84.9 40 92.9ZM76 67.9 76 61.9 64 49.9 52 61.9 52 67.9 28 67.9 28 101.9 57 101.9 57 90.9C57 88.1 59 84.9 64 84.9 69 84.9 71 88.1 71 90.9L71 101.9 100 101.9 100 67.9 76 67.9Z" fill="#ED7D31"/></g></svg>