<svg width="96" height="96" xmlns="http://www.w3.org/2000/svg" xmlns:xlink="http://www.w3.org/1999/xlink" overflow="hidden"><defs><clipPath id="clip0"><rect x="243" y="182" width="96" height="96"/></clipPath></defs><g clip-path="url(#clip0)" transform="translate(-243 -182)"><path d="M299 193C299 197.418 295.418 201 291 201 286.582 201 283 197.418 283 193 283 188.582 286.582 185 291 185 295.418 185 299 188.582 299 193Z" stroke="#0070C0" stroke-width="4" fill="#FF0000"/><path d="M312.8 234.2 307.2 210.4C307 209.6 306.6 208.8 306 208.2 303.6 206.2 300.8 204.8 297.6 203.8 295.4 203.4 293.2 203 291 203 288.8 203 286.6 203.4 284.4 204 281.2 204.8 278.4 206.4 276 208.4 275.4 209 275 209.8 274.8 210.6L269.2 234.4C269.2 234.6 269 235 269 235.4 269 237.6 270.8 239.4 273 239.4 274.8 239.4 276.4 238 276.8 236.4L281 219 281 275 289 275 289 239 293 239 293 275 301 275 301 218.8 305.2 236.2C305.6 237.8 307.2 239.2 309 239.2 311.2 239.2 313 237.4 313 235.2 313 234.8 312.8 234.4 312.8 234.2Z" stroke="#0070C0" stroke-width="4" fill="#FF0000"/></g></svg>