<svg width="96" height="96" xmlns="http://www.w3.org/2000/svg" xmlns:xlink="http://www.w3.org/1999/xlink" overflow="hidden"><defs><clipPath id="clip0"><rect x="16" y="179" width="96" height="96"/></clipPath></defs><g clip-path="url(#clip0)" transform="translate(-16 -179)"><path d="M72 190C72 194.418 68.4183 198 64 198 59.5817 198 56 194.418 56 190 56 185.582 59.5817 182 64 182 68.4183 182 72 185.582 72 190Z" fill="#FF0000"/><path d="M85.8 231.2 80.2 207.4C80 206.6 79.6 205.8 79 205.2 76.6 203.2 73.8 201.8 70.6 200.8 68.4 200.4 66.2 200 64 200 61.8 200 59.6 200.4 57.4 201 54.2 201.8 51.4 203.4 49 205.4 48.4 206 48 206.8 47.8 207.6L42.2 231.4C42.2 231.6 42 232 42 232.4 42 234.6 43.8 236.4 46 236.4 47.8 236.4 49.4 235 49.8 233.4L54 216 54 272 62 272 62 236 66 236 66 272 74 272 74 215.8 78.2 233.2C78.6 234.8 80.2 236.2 82 236.2 84.2 236.2 86 234.4 86 232.2 86 231.8 85.8 231.4 85.8 231.2Z" fill="#FF0000"/></g></svg>