<svg width="96" height="96" xmlns="http://www.w3.org/2000/svg" xmlns:xlink="http://www.w3.org/1999/xlink" overflow="hidden"><defs><clipPath id="clip0"><rect x="375" y="182" width="96" height="96"/></clipPath></defs><g clip-path="url(#clip0)" transform="translate(-375 -182)"><path d="M431 193C431 197.418 427.418 201 423 201 418.582 201 415 197.418 415 193 415 188.582 418.582 185 423 185 427.418 185 431 188.582 431 193Z" stroke="#0070C0" stroke-width="4" fill="#00B050"/><path d="M444.8 234.2 439.2 210.4C439 209.6 438.6 208.8 438 208.2 435.6 206.2 432.8 204.8 429.6 203.8 427.4 203.4 425.2 203 423 203 420.8 203 418.6 203.4 416.4 204 413.2 204.8 410.4 206.4 408 208.4 407.4 209 407 209.8 406.8 210.6L401.2 234.4C401.2 234.6 401 235 401 235.4 401 237.6 402.8 239.4 405 239.4 406.8 239.4 408.4 238 408.8 236.4L413 219 413 275 421 275 421 239 425 239 425 275 433 275 433 218.8 437.2 236.2C437.6 237.8 439.2 239.2 441 239.2 443.2 239.2 445 237.4 445 235.2 445 234.8 444.8 234.4 444.8 234.2Z" stroke="#0070C0" stroke-width="4" fill="#00B050"/></g></svg>