<svg width="96" height="96" xmlns="http://www.w3.org/2000/svg" xmlns:xlink="http://www.w3.org/1999/xlink" overflow="hidden"><defs><clipPath id="clip0"><rect x="69" y="179" width="96" height="96"/></clipPath></defs><g clip-path="url(#clip0)" transform="translate(-69 -179)"><path d="M125 190C125 194.418 121.418 198 117 198 112.582 198 109 194.418 109 190 109 185.582 112.582 182 117 182 121.418 182 125 185.582 125 190Z" fill="#0070C0"/><path d="M138.8 231.2 133.2 207.4C133 206.6 132.6 205.8 132 205.2 129.6 203.2 126.8 201.8 123.6 200.8 121.4 200.4 119.2 200 117 200 114.8 200 112.6 200.4 110.4 201 107.2 201.8 104.4 203.4 102 205.4 101.4 206 101 206.8 100.8 207.6L95.2 231.4C95.2 231.6 95 232 95 232.4 95 234.6 96.8 236.4 99 236.4 100.8 236.4 102.4 235 102.8 233.4L107 216 107 272 115 272 115 236 119 236 119 272 127 272 127 215.8 131.2 233.2C131.6 234.8 133.2 236.2 135 236.2 137.2 236.2 139 234.4 139 232.2 139 231.8 138.8 231.4 138.8 231.2Z" fill="#0070C0"/></g></svg>
