<svg width="96" height="96" xmlns="http://www.w3.org/2000/svg" xmlns:xlink="http://www.w3.org/1999/xlink" overflow="hidden"><defs><clipPath id="clip0"><rect x="297" y="182" width="96" height="96"/></clipPath></defs><g clip-path="url(#clip0)" transform="translate(-297 -182)"><path d="M353 193C353 197.418 349.418 201 345 201 340.582 201 337 197.418 337 193 337 188.582 340.582 185 345 185 349.418 185 353 188.582 353 193Z" stroke="#0070C0" stroke-width="4" fill="#0D0D0D"/><path d="M366.8 234.2 361.2 210.4C361 209.6 360.6 208.8 360 208.2 357.6 206.2 354.8 204.8 351.6 203.8 349.4 203.4 347.2 203 345 203 342.8 203 340.6 203.4 338.4 204 335.2 204.8 332.4 206.4 330 208.4 329.4 209 329 209.8 328.8 210.6L323.2 234.4C323.2 234.6 323 235 323 235.4 323 237.6 324.8 239.4 327 239.4 328.8 239.4 330.4 238 330.8 236.4L335 219 335 275 343 275 343 239 347 239 347 275 355 275 355 218.8 359.2 236.2C359.6 237.8 361.2 239.2 363 239.2 365.2 239.2 367 237.4 367 235.2 367 234.8 366.8 234.4 366.8 234.2Z" stroke="#0070C0" stroke-width="4" fill="#0D0D0D"/></g></svg>