<svg width="96" height="96" xmlns="http://www.w3.org/2000/svg" xmlns:xlink="http://www.w3.org/1999/xlink" xml:space="preserve" overflow="hidden"><defs><clipPath id="clip0"><rect x="263" y="120" width="96" height="96"/></clipPath></defs><g clip-path="url(#clip0)" transform="translate(-263 -120)"><path d="M353.554 200 314.473 131.979C313.375 130.062 310.93 129.399 309.014 130.497 308.397 130.851 307.885 131.362 307.532 131.979L268.45 200C267.345 201.913 268.001 204.359 269.914 205.464 270.521 205.814 271.209 205.999 271.91 206L350.094 206C352.303 205.998 354.092 204.205 354.09 201.996 354.089 201.295 353.904 200.607 353.554 200ZM319.775 177.7C314.927 178.481 311.219 179.264 311.219 181.58 311.219 183.569 312.937 184.162 316.585 184.957 319.408 185.572 322.607 186.269 323.929 188.898 325.602 192.226 322.29 195.341 320.069 196.656L318.8 194.509C318.838 194.486 322.735 192.083 321.7 190.024 320.914 188.461 318.445 187.924 316.058 187.402 312.79 186.69 308.724 185.802 308.724 181.583 308.724 177.491 313.339 176.272 317.69 175.516L317.69 173.381 304.537 173.381 304.537 175.968C304.449 176.796 303.86 177.484 303.056 177.7 298.208 178.482 294.5 179.264 294.5 181.58 294.5 183.569 296.218 184.162 299.866 184.957 302.689 185.572 305.888 186.269 307.21 188.898 308.883 192.226 305.571 195.341 303.351 196.656L302.076 194.506C302.114 194.483 306.012 192.08 304.976 190.021 304.189 188.458 301.721 187.921 299.333 187.399 296.066 186.69 292 185.8 292 181.583 292 177.517 296.558 176.283 300.885 175.529L300.885 173.381 300.156 173.381C299.346 173.371 298.696 172.71 298.7 171.9L298.7 166.821C298.698 165.772 299.433 164.866 300.46 164.65L302.922 158.806C303.297 157.835 304.234 157.197 305.275 157.206L316.957 157.206C318 157.2 318.938 157.84 319.313 158.813L321.742 164.644C322.78 164.849 323.527 165.76 323.527 166.818L323.527 171.9C323.529 172.711 322.876 173.371 322.066 173.378L321.337 173.378 321.337 175.965C321.249 176.822 320.618 177.523 319.775 177.7Z"/><path d="M317.227 159.655C317.177 159.526 317.054 159.441 316.916 159.438L305.229 159.438C305.092 159.442 304.97 159.526 304.918 159.653L302.875 164.605 319.351 164.605Z"/></g></svg>