<svg width="96" height="96" xmlns="http://www.w3.org/2000/svg" xmlns:xlink="http://www.w3.org/1999/xlink" xml:space="preserve" overflow="hidden"><defs><clipPath id="clip0"><rect x="441" y="145" width="96" height="96"/></clipPath></defs><g clip-path="url(#clip0)" transform="translate(-441 -145)"><path d="M447.824 230.5C448.432 230.851 449.122 231.036 449.824 231.036L528 231.036C530.209 231.034 531.998 229.241 531.996 227.032 531.995 226.331 531.81 225.643 531.46 225.036L492.382 157.012C491.283 155.096 488.839 154.433 486.922 155.532 486.306 155.885 485.795 156.396 485.442 157.012L446.36 225.031C445.253 226.943 445.906 229.39 447.818 230.497 447.82 230.498 447.822 230.499 447.824 230.5ZM448.094 226.031 487.177 158.006C487.354 157.698 487.609 157.443 487.917 157.266 488.218 157.091 488.56 156.999 488.908 157 489.626 157.001 490.29 157.385 490.648 158.008L529.732 226.03C530.185 226.814 530.055 227.805 529.415 228.445 529.041 228.822 528.531 229.034 528 229.032L449.822 229.032C448.717 229.03 447.824 228.133 447.826 227.028 447.827 226.678 447.919 226.335 448.094 226.032Z"/><path d="M481.214 201.816C481.713 201.552 482.026 201.035 482.029 200.47L482.029 198.844 495.794 198.844 495.794 200.322C491.501 201.078 486.904 202.273 486.904 206.281 486.904 210.373 490.693 211.219 494.037 211.965 496.593 212.535 499.008 213.074 499.85 214.789 501.004 217.14 496.89 219.736 496.85 219.762L497.888 221.471C498.124 221.329 503.624 217.933 501.647 213.907 500.382 211.331 497.247 210.63 494.474 210.013 491.02 209.242 488.9 208.65 488.9 206.281 488.9 203.481 493.559 202.71 497.669 202.032L497.867 202 498.088 202C498.932 201.998 499.616 201.314 499.618 200.47L499.618 198.844 500.382 198.844C501.226 198.842 501.91 198.158 501.912 197.314L501.912 191.2C501.912 189.932 500.886 188.903 499.618 188.9L498.953 188.9 497.132 183.43C496.797 182.563 495.961 181.994 495.032 182L482.794 182C481.865 181.994 481.029 182.563 480.694 183.43L478.871 188.9 478.206 188.9C476.938 188.903 475.912 189.932 475.912 191.2L475.912 197.319C475.914 198.163 476.597 198.846 477.441 198.849L478.206 198.849 478.206 200.349C474.264 201.132 470.186 202.509 470.186 206.289 470.186 210.381 473.975 211.227 477.318 211.973 479.875 212.543 482.29 213.082 483.132 214.797 484.286 217.148 480.171 219.744 480.132 219.77L481.17 221.479C481.405 221.337 486.905 217.941 484.929 213.915 483.664 211.339 480.529 210.638 477.756 210.021 474.304 209.25 472.188 208.658 472.188 206.289 472.188 203.731 475.741 202.789 480.241 202.013L480.5 202C480.723 201.999 480.943 201.948 481.144 201.852ZM482.566 184.13C482.611 184.046 482.699 183.996 482.794 184L495.029 184C495.124 183.996 495.212 184.046 495.257 184.13L496.844 188.9 480.979 188.9ZM477.912 196.844 477.912 191.2C477.915 191.039 478.045 190.909 478.206 190.906L499.618 190.906C499.779 190.909 499.909 191.039 499.912 191.2L499.912 196.849 477.912 196.849Z"/></g></svg>